<?xml version="1.0" encoding="UTF-8" ?>
<!DOCTYPE svg PUBLIC "-//W3C//DTD SVG 1.1//EN" "http://www.w3.org/Graphics/SVG/1.1/DTD/svg11.dtd">
<svg width="763pt" height="775pt" viewBox="0 0 763 775" version="1.1" xmlns="http://www.w3.org/2000/svg">
<g id="#8dd22aff">
<path fill="#8dd22a" opacity="1.00" d=" M 81.31 35.07 C 80.58 31.34 85.56 27.88 88.63 30.40 C 91.25 31.58 90.39 34.68 91.02 36.90 C 96.08 41.57 101.04 46.36 106.17 50.94 C 110.62 52.92 115.52 53.67 120.09 55.36 C 126.46 57.66 133.28 58.67 139.45 61.51 C 141.56 68.71 143.67 76.01 145.03 83.41 C 144.47 83.63 143.35 84.05 142.79 84.26 C 140.66 77.40 139.48 70.30 137.43 63.42 C 127.32 60.14 117.04 57.45 106.93 54.19 C 103.57 53.24 101.46 50.27 98.97 48.04 C 95.70 44.78 92.10 41.86 89.00 38.42 C 87.96 38.73 86.91 39.04 85.87 39.37 C 83.89 38.62 81.37 37.57 81.31 35.07 M 84.08 33.82 C 84.81 35.07 85.94 35.75 87.34 35.83 C 87.36 35.17 87.40 33.84 87.42 33.17 C 86.30 33.37 85.19 33.59 84.08 33.82 Z" />
</g>
<g id="#86cc26ff">
<path fill="#86cc26" opacity="1.00" d=" M 51.60 32.66 C 52.44 31.64 54.79 30.54 55.31 32.44 C 60.85 57.27 65.65 82.28 71.54 107.03 C 73.41 107.95 75.23 108.99 76.96 110.18 C 75.32 110.25 73.69 110.40 72.05 110.45 C 70.90 109.79 69.82 109.01 68.74 108.25 C 63.77 83.81 58.18 59.50 53.15 35.07 C 33.18 52.56 19.20 77.14 15.75 103.56 C 14.56 106.59 14.67 109.86 14.25 113.03 C 13.84 113.42 13.03 114.19 12.63 114.58 C 12.50 83.18 28.31 53.16 51.60 32.66 Z" />
</g>
<g id="#77be1eff">
<path fill="#77be1e" opacity="1.00" d=" M 39.63 55.60 C 42.72 51.37 46.20 47.42 50.22 44.05 C 52.35 48.47 52.46 53.52 53.81 58.19 C 57.46 75.28 61.09 92.38 64.67 109.48 C 71.93 113.71 79.30 117.74 86.67 121.77 C 85.97 122.16 84.58 122.95 83.89 123.34 C 77.24 119.63 70.54 116.03 63.92 112.27 C 61.17 111.04 61.72 107.50 61.01 105.04 C 57.04 86.37 52.87 67.74 49.15 49.01 C 39.49 58.31 32.77 70.35 27.97 82.79 C 24.22 93.77 21.93 105.33 22.36 116.97 C 21.68 116.95 20.33 116.92 19.65 116.90 C 19.24 94.98 26.38 73.07 39.63 55.60 Z" />
</g>
<g id="#4d4d4dff">
<path fill="#4d4d4d" opacity="1.00" d=" M 313.09 47.11 C 319.11 43.59 327.05 43.41 333.15 46.82 C 339.55 50.07 342.06 58.61 339.44 65.10 C 337.34 70.72 332.41 74.52 327.53 77.63 C 330.98 81.25 334.91 84.34 338.88 87.36 C 341.89 82.87 344.22 77.97 345.86 72.83 C 351.04 72.86 356.22 72.86 361.40 72.83 C 358.85 80.37 355.47 87.64 350.76 94.10 C 354.16 95.86 357.85 96.88 361.60 97.57 C 360.00 102.15 358.69 106.82 357.24 111.44 C 351.31 110.03 345.63 107.76 340.17 105.05 C 332.49 109.99 323.06 112.49 313.97 110.87 C 307.24 109.78 300.70 105.57 298.24 99.01 C 297.02 95.14 297.06 90.93 297.90 86.99 C 299.33 81.62 303.76 77.82 308.15 74.79 C 307.52 71.77 305.74 69.11 305.15 66.06 C 303.32 58.96 306.56 50.63 313.09 47.11 M 320.27 57.25 C 317.28 60.30 319.00 64.82 320.16 68.30 C 324.12 66.54 328.55 62.86 327.33 57.99 C 326.45 54.88 322.01 54.93 320.27 57.25 M 314.57 95.54 C 317.99 99.20 323.49 98.49 327.74 96.91 C 323.89 93.20 319.61 89.90 316.35 85.62 C 313.43 87.92 311.97 92.46 314.57 95.54 Z" />
<path fill="#4d4d4d" opacity="1.00" d=" M 214.92 45.66 C 220.68 45.64 226.44 45.67 232.19 45.64 C 232.20 67.14 232.20 88.63 232.20 110.12 C 226.44 110.12 220.68 110.13 214.92 110.12 C 214.92 88.63 214.92 67.15 214.92 45.66 Z" />
<path fill="#4d4d4d" opacity="1.00" d=" M 241.61 45.62 C 258.59 45.64 275.57 45.75 292.55 45.56 C 292.76 50.34 292.62 55.12 292.71 59.89 C 287.04 59.95 281.37 59.90 275.71 59.92 C 275.72 76.62 275.66 93.33 275.74 110.04 C 269.97 110.14 264.20 110.24 258.45 109.97 C 258.56 93.28 258.48 76.60 258.49 59.91 C 252.86 59.94 247.24 59.86 241.62 59.98 C 241.57 55.19 241.59 50.41 241.61 45.62 Z" />
<path fill="#4d4d4d" opacity="1.00" d=" M 370.40 109.98 C 370.59 88.51 370.33 67.05 370.53 45.59 C 381.64 46.17 393.09 44.29 403.88 47.78 C 413.00 50.39 420.11 58.64 421.53 68.00 C 423.53 78.96 422.80 91.60 415.32 100.47 C 409.30 107.38 399.80 109.95 390.92 110.10 C 384.08 110.11 377.23 110.25 370.40 109.98 M 387.42 59.23 C 387.50 71.70 387.32 84.17 387.51 96.64 C 393.12 96.47 399.68 95.05 402.50 89.60 C 405.99 82.73 406.10 74.13 403.21 67.04 C 400.81 60.75 393.46 59.06 387.42 59.23 Z" />
<path fill="#4d4d4d" opacity="1.00" d=" M 455.35 61.23 C 459.18 58.65 463.99 59.08 468.29 60.00 C 467.42 65.04 466.42 70.05 465.27 75.03 C 462.52 74.39 459.54 73.62 456.81 74.74 C 453.13 76.34 449.76 79.71 449.74 83.95 C 449.69 92.66 449.73 101.37 449.74 110.08 C 444.00 110.17 438.26 110.10 432.53 110.13 C 432.53 93.58 432.51 77.02 432.54 60.47 C 437.15 60.55 441.76 60.56 446.38 60.45 C 446.83 63.37 447.23 66.29 447.65 69.21 C 449.90 66.27 451.90 62.92 455.35 61.23 Z" />
<path fill="#4d4d4d" opacity="1.00" d=" M 470.97 65.92 C 478.63 61.01 488.05 58.36 497.16 59.56 C 502.09 60.36 507.19 62.76 509.74 67.27 C 512.46 71.67 513.39 76.92 513.42 82.03 C 513.44 91.40 513.42 100.76 513.42 110.13 C 508.90 110.04 504.38 110.27 499.87 110.05 C 498.90 108.59 498.76 106.74 498.22 105.12 C 494.37 108.19 490.03 111.23 484.91 111.34 C 477.70 111.86 470.46 106.23 469.70 98.95 C 468.86 93.97 469.88 88.26 474.11 85.05 C 480.31 79.90 488.76 78.91 496.47 77.74 C 495.58 76.05 494.95 73.82 492.89 73.22 C 487.25 71.46 481.61 74.46 476.85 77.22 C 475.10 73.34 472.89 69.70 470.97 65.92 M 485.52 94.01 C 485.12 98.38 491.21 99.03 493.95 96.90 C 497.41 95.20 495.97 90.89 496.23 87.83 C 492.34 88.90 486.94 89.57 485.52 94.01 Z" />
<path fill="#4d4d4d" opacity="1.00" d=" M 533.52 61.45 C 539.34 58.75 546.01 58.82 552.15 60.33 C 558.26 60.80 564.41 60.42 570.54 60.47 C 570.55 64.56 570.55 68.65 570.55 72.75 C 568.25 72.71 565.96 72.67 563.68 72.62 C 564.20 77.17 564.81 82.25 562.28 86.35 C 557.40 94.04 546.80 95.55 538.56 93.61 C 537.03 95.47 537.17 98.72 540.01 99.10 C 547.84 100.24 556.11 98.26 563.68 101.27 C 568.30 102.57 571.39 107.27 571.35 111.97 C 571.50 117.72 567.92 123.12 562.95 125.82 C 554.24 130.59 543.79 131.45 534.13 129.76 C 528.89 128.71 522.91 125.85 521.95 120.00 C 520.76 114.82 524.74 110.55 528.95 108.29 C 526.14 106.48 523.93 103.53 524.31 100.03 C 523.83 95.86 526.92 92.68 529.78 90.15 C 524.55 86.59 522.11 79.98 523.39 73.83 C 524.12 68.21 528.32 63.47 533.52 61.45 M 541.39 71.48 C 538.34 73.18 539.05 77.16 539.21 80.05 C 539.60 84.29 545.87 85.81 548.31 82.31 C 549.88 79.57 549.74 76.01 548.70 73.10 C 547.32 70.66 543.68 69.85 541.39 71.48 M 536.96 111.77 C 536.40 113.39 534.88 115.16 536.05 116.89 C 538.39 119.87 542.57 119.93 546.03 119.91 C 549.04 119.72 552.84 119.45 554.60 116.60 C 555.66 115.06 554.43 112.71 552.58 112.59 C 547.40 111.99 542.13 112.69 536.96 111.77 Z" />
<path fill="#4d4d4d" opacity="1.00" d=" M 593.51 59.80 C 600.44 58.26 607.94 60.05 613.60 64.28 C 625.79 73.64 626.52 93.97 615.56 104.55 C 609.64 110.07 600.95 112.70 593.03 110.66 C 587.01 109.10 581.33 105.43 578.12 100.02 C 572.56 91.15 572.64 79.09 578.25 70.26 C 581.61 64.84 587.34 61.18 593.51 59.80 M 596.25 73.38 C 593.54 74.38 592.60 77.37 592.05 79.94 C 591.20 84.79 591.27 90.05 593.41 94.58 C 594.95 97.87 599.69 98.12 602.49 96.38 C 604.84 93.93 605.57 90.35 605.71 87.05 C 605.83 83.10 605.77 78.81 603.48 75.40 C 602.03 73.03 598.71 72.23 596.25 73.38 Z" />
<path fill="#4d4d4d" opacity="1.00" d=" M 647.23 66.52 C 651.60 62.65 656.93 59.20 662.98 59.27 C 668.59 58.96 674.31 62.16 676.52 67.41 C 678.05 71.41 678.59 75.74 678.58 80.01 C 678.62 90.00 678.49 99.99 678.65 109.98 C 672.98 110.27 667.29 110.06 661.62 110.13 C 661.59 100.41 661.65 90.69 661.61 80.98 C 661.54 78.51 661.29 75.46 658.89 74.11 C 655.31 72.73 651.15 74.95 649.26 77.96 C 649.03 88.67 649.25 99.40 649.17 110.12 C 643.51 110.11 637.85 110.16 632.19 110.08 C 632.18 93.59 632.30 77.09 632.13 60.60 C 636.79 60.46 641.45 60.50 646.12 60.57 C 646.48 62.55 646.85 64.53 647.23 66.52 Z" />
<path fill="#4d4d4d" opacity="1.00" d=" M 690.44 67.43 C 693.54 62.04 700.04 59.74 705.94 59.32 C 713.32 58.68 720.52 61.60 726.39 65.90 C 723.54 69.08 721.08 72.58 718.66 76.08 C 715.04 73.38 710.55 70.95 705.90 72.21 C 703.78 72.52 703.58 75.67 705.35 76.60 C 708.92 78.63 713.02 79.46 716.70 81.29 C 720.71 82.92 724.07 86.21 725.57 90.29 C 728.30 97.22 724.04 105.37 717.60 108.49 C 707.48 113.81 694.93 111.14 686.03 104.62 C 687.27 100.58 691.09 97.58 693.03 93.74 C 696.91 96.31 701.25 98.81 706.06 98.67 C 707.79 98.62 709.93 97.95 710.43 96.06 C 709.99 93.47 707.17 92.52 705.05 91.71 C 699.70 89.69 693.74 87.60 690.47 82.59 C 687.28 78.20 687.56 71.90 690.44 67.43 Z" />
<path fill="#4d4d4d" opacity="1.00" d=" M 388.82 160.74 C 392.57 156.14 398.04 152.74 404.09 152.52 C 410.19 152.05 416.94 154.50 420.06 160.05 C 422.82 165.25 422.61 171.71 420.10 176.98 C 415.95 185.28 409.15 191.73 403.10 198.62 C 410.28 197.64 417.52 197.96 424.74 197.91 C 424.77 200.63 424.77 203.35 424.73 206.07 C 412.89 206.03 401.04 206.11 389.19 206.03 C 389.20 204.14 389.21 202.25 389.23 200.36 C 396.16 193.58 403.39 186.98 409.09 179.08 C 411.70 175.36 413.71 170.68 412.53 166.07 C 411.70 162.69 408.68 159.80 405.03 160.13 C 400.40 159.43 396.98 163.07 393.97 165.98 C 392.25 164.24 390.55 162.47 388.82 160.74 Z" />
<path fill="#4d4d4d" opacity="1.00" d=" M 443.44 153.63 C 449.44 151.17 457.11 152.67 461.27 157.77 C 466.36 163.52 467.05 171.68 467.34 179.01 C 467.19 187.16 466.41 196.29 460.50 202.52 C 454.29 209.14 442.35 208.35 437.09 200.93 C 431.28 192.55 430.97 181.70 432.04 171.91 C 433.01 164.70 436.07 156.44 443.44 153.63 M 446.45 160.57 C 442.18 163.55 441.37 169.22 440.86 174.02 C 440.54 180.69 440.32 187.67 442.77 194.00 C 443.88 196.24 445.26 199.19 448.12 199.34 C 450.60 199.76 453.51 199.07 454.81 196.72 C 458.00 191.08 458.27 184.36 458.24 178.03 C 458.03 172.71 457.60 167.04 454.66 162.44 C 452.91 159.78 449.16 159.60 446.45 160.57 Z" />
<path fill="#4d4d4d" opacity="1.00" d=" M 521.95 156.11 C 529.23 150.20 541.20 151.76 546.51 159.55 C 551.64 166.84 552.10 176.36 551.13 184.94 C 550.08 192.86 546.79 201.69 539.00 205.18 C 531.64 208.86 522.43 206.84 516.70 201.12 C 518.51 199.19 520.22 197.18 521.88 195.13 C 525.62 199.75 533.18 200.88 537.54 196.51 C 541.53 192.11 542.67 185.82 542.69 180.06 C 537.61 186.84 526.89 187.89 520.57 182.35 C 513.81 175.24 514.50 162.48 521.95 156.11 M 529.40 160.51 C 522.99 164.16 522.77 175.80 529.95 178.70 C 534.87 180.60 539.81 177.07 542.47 173.13 C 542.26 169.30 541.10 165.38 538.58 162.41 C 536.41 159.79 532.43 159.28 529.40 160.51 Z" />
<path fill="#4d4d4d" opacity="1.00" d=" M 478.86 157.90 C 483.05 156.84 487.26 155.66 491.07 153.54 C 493.43 153.51 495.79 153.51 498.16 153.51 C 498.16 168.44 498.18 183.36 498.15 198.28 C 501.58 198.30 505.01 198.29 508.45 198.27 C 508.43 200.81 508.44 203.36 508.48 205.91 C 497.90 206.26 487.32 205.94 476.73 206.08 C 476.68 203.48 476.66 200.87 476.64 198.26 C 480.58 198.28 484.53 198.28 488.48 198.35 C 488.64 186.88 488.43 175.41 488.59 163.95 C 485.31 163.85 482.03 163.84 478.76 163.81 C 478.80 161.84 478.83 159.87 478.86 157.90 Z" />
<path fill="#4d4d4d" opacity="1.00" d=" M 306.16 313.25 C 310.86 301.78 327.72 299.29 336.45 307.53 C 340.69 312.14 341.76 319.39 338.78 324.94 C 336.44 329.84 331.88 333.06 327.53 336.03 C 331.06 339.54 334.89 342.73 338.91 345.67 C 341.91 341.16 344.23 336.23 345.91 331.08 C 351.07 331.27 356.23 331.20 361.39 331.13 C 358.96 338.79 355.26 345.93 350.82 352.60 C 354.24 354.09 357.79 355.33 361.52 355.75 C 360.14 360.43 358.66 365.08 357.28 369.76 C 351.30 368.41 345.64 366.02 340.13 363.40 C 331.94 368.72 321.68 371.06 312.09 368.81 C 305.94 367.30 300.24 363.06 298.09 356.95 C 297.05 353.09 297.05 348.95 297.97 345.07 C 299.56 339.77 303.88 335.90 308.41 333.01 C 305.44 326.98 302.95 319.72 306.16 313.25 M 321.47 314.62 C 317.22 317.22 318.32 323.25 320.71 326.80 C 323.50 324.44 327.78 322.20 327.46 317.94 C 328.06 314.72 323.87 312.60 321.47 314.62 M 314.39 353.60 C 317.69 357.58 323.51 356.84 327.84 355.22 C 323.80 351.63 319.65 348.11 316.23 343.89 C 313.64 346.32 311.95 350.47 314.39 353.60 Z" />
<path fill="#4d4d4d" opacity="1.00" d=" M 214.99 304.03 C 220.72 304.07 226.45 304.11 232.19 304.02 C 232.21 325.47 232.20 346.93 232.19 368.39 C 226.44 368.36 220.68 368.38 214.92 368.37 C 214.96 346.92 214.83 325.47 214.99 304.03 Z" />
<path fill="#4d4d4d" opacity="1.00" d=" M 241.62 303.97 C 258.62 304.13 275.63 304.15 292.63 303.96 C 292.69 308.74 292.69 313.52 292.64 318.30 C 287.00 318.22 281.37 318.33 275.74 318.19 C 275.56 334.95 275.90 351.72 275.57 368.48 C 269.90 368.29 264.23 368.34 258.56 368.44 C 258.37 351.68 258.63 334.91 258.43 318.15 C 252.82 318.36 247.21 318.21 241.61 318.29 C 241.59 313.51 241.57 308.74 241.62 303.97 Z" />
<path fill="#4d4d4d" opacity="1.00" d=" M 370.40 304.13 C 382.09 304.50 394.25 302.52 405.49 306.64 C 413.95 309.72 420.26 317.67 421.58 326.56 C 423.50 337.36 422.77 349.77 415.50 358.57 C 409.99 365.11 401.28 367.90 392.98 368.33 C 385.50 368.49 378.01 368.24 370.54 368.45 C 370.32 347.01 370.60 325.57 370.40 304.13 M 387.42 354.79 C 391.16 354.70 395.13 354.47 398.33 352.30 C 402.90 349.58 404.60 343.99 405.05 338.99 C 405.49 333.16 404.98 326.68 401.10 321.99 C 397.65 318.23 392.29 317.70 387.51 317.42 C 387.32 329.87 387.50 342.33 387.42 354.79 Z" />
<path fill="#4d4d4d" opacity="1.00" d=" M 454.91 319.82 C 458.86 317.10 464.02 317.04 468.42 318.62 C 467.25 323.45 466.44 328.37 465.34 333.22 C 459.11 330.76 451.18 334.24 449.85 341.01 C 449.43 350.16 450.03 359.34 449.56 368.49 C 443.89 368.27 438.22 368.37 432.54 368.42 C 432.51 351.88 432.52 335.35 432.54 318.82 C 437.15 318.85 441.75 318.86 446.37 318.80 C 446.82 321.66 447.22 324.53 447.63 327.40 C 449.91 324.73 451.67 321.48 454.91 319.82 Z" />
<path fill="#4d4d4d" opacity="1.00" d=" M 470.84 324.14 C 478.98 319.44 488.59 316.32 498.05 318.04 C 502.59 318.99 507.23 321.28 509.65 325.43 C 512.55 330.06 513.45 335.64 513.43 341.03 C 513.42 350.16 513.43 359.28 513.42 368.41 C 508.83 368.35 504.25 368.33 499.67 368.45 C 499.18 366.77 498.70 365.10 498.22 363.43 C 494.42 366.46 490.14 369.53 485.08 369.62 C 478.07 370.25 470.88 365.01 469.81 357.96 C 468.76 352.73 469.74 346.63 474.25 343.25 C 480.50 338.28 488.82 337.15 496.50 336.07 C 495.55 334.28 494.85 331.88 492.56 331.44 C 486.97 330.01 481.56 332.80 476.84 335.49 C 474.95 331.65 472.96 327.86 470.84 324.14 M 486.48 350.39 C 484.95 351.83 485.12 354.99 487.29 355.75 C 490.50 357.45 494.13 355.64 496.28 353.11 C 496.23 350.81 496.23 348.51 496.24 346.22 C 492.79 346.98 489.01 347.69 486.48 350.39 Z" />
<path fill="#4d4d4d" opacity="1.00" d=" M 529.79 321.80 C 535.79 317.80 543.46 316.62 550.45 318.35 C 557.09 319.30 563.85 318.57 570.54 318.76 C 570.55 322.89 570.55 327.02 570.54 331.15 C 568.26 331.11 565.98 331.07 563.71 331.01 C 564.25 335.88 564.86 341.47 561.62 345.59 C 556.80 352.37 547.41 353.35 539.79 352.30 C 536.65 351.44 536.81 357.19 539.76 357.35 C 548.73 358.71 558.69 356.07 566.88 361.15 C 572.78 365.54 572.47 374.76 567.92 380.04 C 563.23 385.41 555.94 387.56 549.10 388.49 C 541.59 389.14 533.38 389.28 526.73 385.20 C 522.30 382.73 520.37 376.48 522.96 372.04 C 524.23 369.61 526.66 368.18 528.89 366.75 C 526.51 364.83 524.10 362.36 524.33 359.04 C 523.63 354.74 526.50 351.12 529.73 348.70 C 527.03 346.14 524.25 343.35 523.56 339.53 C 522.03 333.08 524.19 325.65 529.79 321.80 M 542.20 329.37 C 540.41 330.16 538.94 331.83 539.12 333.89 C 539.12 336.34 538.54 339.50 540.73 341.25 C 542.91 343.33 546.67 342.88 548.47 340.53 C 549.78 337.66 549.77 334.23 548.64 331.30 C 547.24 329.33 544.45 328.28 542.20 329.37 M 537.05 370.08 C 536.03 371.93 534.62 374.58 536.92 376.13 C 541.45 379.22 547.82 378.82 552.72 376.79 C 555.25 375.82 555.96 371.75 552.93 371.00 C 547.68 370.12 542.30 371.05 537.05 370.08 Z" />
<path fill="#4d4d4d" opacity="1.00" d=" M 593.18 318.20 C 600.38 316.44 608.25 318.43 614.04 322.98 C 627.18 333.46 626.25 357.05 611.67 365.83 C 603.20 371.43 591.41 370.71 583.52 364.38 C 571.39 354.91 570.82 334.50 582.01 324.09 C 585.07 321.10 589.09 319.28 593.18 318.20 M 596.48 331.60 C 593.37 332.62 592.44 336.15 591.92 339.02 C 591.22 344.00 591.29 349.52 594.02 353.92 C 596.17 356.23 600.15 356.26 602.69 354.54 C 604.93 351.90 605.66 348.33 605.73 344.95 C 605.83 341.07 605.64 336.89 603.38 333.58 C 601.98 331.32 598.85 330.72 596.48 331.60 Z" />
<path fill="#4d4d4d" opacity="1.00" d=" M 647.43 324.84 C 652.04 320.34 658.32 316.93 664.94 317.65 C 670.10 318.00 674.94 321.44 676.75 326.32 C 678.33 330.69 678.64 335.40 678.59 340.02 C 678.52 349.49 678.69 358.97 678.50 368.45 C 672.87 368.31 667.24 368.37 661.62 368.40 C 661.59 358.58 661.66 348.76 661.59 338.95 C 661.55 336.35 661.01 332.75 657.95 332.17 C 654.39 331.33 651.51 333.78 649.10 335.99 C 649.27 346.79 649.13 357.58 649.18 368.38 C 643.57 368.39 637.96 368.27 632.36 368.49 C 631.99 351.96 632.35 335.43 632.18 318.90 C 636.80 318.81 641.43 318.79 646.06 318.92 C 646.48 320.90 646.93 322.87 647.43 324.84 Z" />
<path fill="#4d4d4d" opacity="1.00" d=" M 690.60 325.51 C 693.99 320.03 700.82 317.81 706.96 317.59 C 713.98 317.20 720.64 320.20 726.30 324.11 C 723.55 327.44 721.19 331.08 718.41 334.39 C 714.60 331.04 709.04 328.98 704.17 331.22 C 704.11 332.95 704.38 335.03 706.38 335.55 C 712.19 338.15 719.25 339.29 723.34 344.63 C 726.83 348.80 727.38 354.97 724.72 359.71 C 721.73 365.99 714.59 369.01 707.99 369.52 C 699.98 370.39 692.17 367.19 685.64 362.79 C 687.95 359.06 690.84 355.72 693.11 351.96 C 697.08 354.93 701.89 357.42 707.00 356.87 C 708.68 356.77 710.25 355.63 710.48 353.88 C 709.17 351.13 705.94 350.51 703.40 349.44 C 698.52 347.49 693.13 345.37 690.28 340.66 C 687.23 336.19 687.65 329.92 690.60 325.51 Z" />
<path fill="#4d4d4d" opacity="1.00" d=" M 388.78 413.96 C 392.29 410.21 396.66 406.92 401.86 406.15 C 408.46 404.90 416.17 407.15 419.84 413.07 C 422.93 418.52 422.65 425.44 419.82 430.95 C 415.61 438.93 409.07 445.27 403.14 451.94 C 410.31 451.00 417.54 451.45 424.74 451.27 C 424.76 453.95 424.78 456.64 424.82 459.33 C 412.92 459.42 401.02 459.38 389.12 459.34 C 389.43 457.05 388.35 454.09 390.55 452.49 C 397.33 445.63 404.70 439.18 410.02 431.06 C 412.66 426.88 414.21 421.12 411.28 416.70 C 409.75 413.76 406.08 413.35 403.13 413.60 C 399.23 413.74 396.62 416.96 393.99 419.40 C 392.25 417.59 390.52 415.76 388.78 413.96 Z" />
<path fill="#4d4d4d" opacity="1.00" d=" M 444.50 406.62 C 450.42 404.61 457.58 406.47 461.50 411.43 C 466.35 417.05 467.00 424.92 467.33 432.03 C 467.23 440.41 466.47 449.88 460.22 456.18 C 453.85 462.65 441.90 461.55 436.85 453.96 C 431.23 445.52 430.95 434.73 432.09 424.97 C 433.06 417.46 436.64 409.01 444.50 406.62 M 446.15 414.11 C 444.19 415.52 442.99 417.75 442.25 420.00 C 440.45 425.79 440.54 431.95 440.82 437.95 C 441.24 442.51 441.90 447.46 445.02 451.05 C 447.54 454.09 453.07 453.37 454.91 449.92 C 457.80 444.80 458.16 438.74 458.26 432.99 C 458.17 427.26 457.83 421.20 454.89 416.12 C 453.16 413.16 449.04 412.97 446.15 414.11 Z" />
<path fill="#4d4d4d" opacity="1.00" d=" M 524.77 407.75 C 531.06 404.32 539.32 405.71 544.47 410.54 C 551.23 417.36 552.07 427.80 551.30 436.88 C 550.45 445.36 547.14 455.09 538.70 458.71 C 531.40 462.24 522.45 460.13 516.76 454.60 C 518.49 452.58 520.20 450.56 521.88 448.50 C 525.28 452.48 531.47 454.26 536.00 451.08 C 541.54 447.12 542.33 439.62 542.92 433.37 C 540.62 435.35 538.49 437.79 535.43 438.54 C 529.36 440.51 521.42 438.66 518.27 432.70 C 513.61 424.51 515.89 412.07 524.77 407.75 M 530.40 413.60 C 522.90 416.23 522.49 429.23 530.03 432.12 C 534.98 433.88 540.29 430.38 542.50 426.06 C 542.13 422.52 541.05 418.95 538.86 416.09 C 536.95 413.57 533.35 412.83 530.40 413.60 Z" />
<path fill="#4d4d4d" opacity="1.00" d=" M 489.61 407.70 C 492.25 406.35 495.31 407.02 498.16 406.90 C 498.20 421.82 498.11 436.75 498.21 451.68 C 501.61 451.63 505.02 451.62 508.42 451.58 C 508.43 454.19 508.43 456.80 508.43 459.41 C 497.85 459.35 487.26 459.35 476.68 459.41 C 476.67 456.80 476.67 454.19 476.69 451.59 C 480.63 451.62 484.58 451.62 488.53 451.69 C 488.56 440.19 488.51 428.71 488.55 417.22 C 485.30 417.24 482.06 417.25 478.82 417.26 C 478.83 415.24 478.85 413.23 478.88 411.22 C 482.55 410.37 486.20 409.35 489.61 407.70 Z" />
</g>
<g id="#7cc321ff">
<path fill="#7cc321" opacity="1.00" d=" M 75.32 51.97 C 75.13 48.34 79.87 46.42 82.62 48.40 C 84.05 49.18 84.33 50.95 84.99 52.30 C 89.36 53.93 94.19 54.36 98.20 56.86 C 93.34 61.94 87.03 65.29 81.54 69.62 C 80.32 70.73 80.89 72.56 80.72 74.01 C 80.79 83.01 80.71 92.02 80.72 101.02 C 80.36 103.95 83.93 104.54 85.76 105.86 C 85.02 106.21 83.56 106.93 82.83 107.28 C 81.21 106.09 77.96 105.64 78.29 103.08 C 78.37 91.59 77.97 80.05 78.47 68.58 C 83.18 64.71 88.41 61.52 93.16 57.71 C 90.17 56.83 87.17 55.98 84.15 55.20 C 82.79 56.06 81.41 56.89 80.03 57.70 C 77.58 56.80 74.80 55.02 75.32 51.97 M 78.42 53.54 C 79.81 53.60 81.80 53.59 81.34 51.63 C 79.80 50.24 77.93 51.71 78.42 53.54 Z" />
</g>
<g id="#79c01fff">
<path fill="#79c01f" opacity="1.00" d=" M 27.47 124.15 C 25.64 100.76 32.56 77.04 46.30 58.07 C 50.44 75.96 53.96 94.01 57.94 111.91 C 65.67 116.96 74.10 120.88 82.05 125.58 C 81.69 126.21 80.95 127.48 80.58 128.12 C 72.30 123.51 63.87 119.16 55.77 114.24 C 55.26 111.77 54.67 109.32 54.25 106.83 L 53.81 106.08 C 51.23 92.34 47.70 78.78 45.27 65.01 C 34.17 81.50 28.84 101.92 30.26 121.73 C 29.33 122.54 28.40 123.34 27.47 124.15 Z" />
<path fill="#79c01f" opacity="1.00" d=" M 99.65 80.81 C 102.56 78.03 106.27 75.66 110.02 74.30 C 120.74 77.41 131.27 81.22 141.94 84.49 C 142.16 84.44 142.58 84.32 142.79 84.26 C 143.35 84.05 144.47 83.63 145.03 83.41 L 145.47 83.24 C 145.54 84.82 145.62 86.40 145.69 87.98 C 138.87 87.20 132.66 84.02 126.09 82.25 C 120.65 80.87 115.55 78.35 110.05 77.26 C 107.11 78.23 104.82 80.50 102.18 82.06 C 102.39 86.22 101.59 90.59 102.49 94.64 C 108.43 98.40 114.91 101.28 120.84 105.06 C 120.26 105.43 119.10 106.18 118.52 106.56 C 112.06 103.42 105.84 99.68 99.55 96.18 C 99.53 91.06 99.15 85.91 99.65 80.81 Z" />
</g>
<g id="#7dc421ff">
<path fill="#7dc421" opacity="1.00" d=" M 87.29 74.03 C 93.53 69.19 100.13 64.61 106.90 60.51 C 111.35 61.66 115.79 62.87 120.13 64.38 C 122.51 62.26 126.77 61.20 128.84 64.31 C 131.52 67.57 127.87 72.83 123.85 71.69 C 121.18 71.62 120.85 68.40 119.17 66.95 C 115.14 65.60 111.04 64.48 106.98 63.25 C 101.97 67.22 96.47 70.54 91.30 74.28 C 89.08 75.78 90.05 78.76 89.80 80.99 C 89.96 86.97 89.28 93.07 90.07 98.96 C 92.79 101.76 96.95 102.71 100.11 105.01 C 100.09 105.75 100.04 107.23 100.02 107.97 C 95.68 105.80 91.60 103.14 87.23 101.02 C 87.23 92.03 87.01 83.02 87.29 74.03 M 124.47 65.68 C 122.25 66.10 124.38 69.75 125.73 68.01 C 127.18 67.33 125.59 64.97 124.47 65.68 Z" />
</g>
<g id="#66af13ff">
<path fill="#66af13" opacity="1.00" d=" M 42.05 78.13 C 43.28 79.05 43.95 80.42 44.24 81.90 C 46.79 93.00 48.43 104.45 51.74 115.30 C 60.48 120.30 69.42 124.96 78.14 130.01 C 77.73 130.63 76.91 131.86 76.50 132.48 C 67.92 127.77 59.29 123.14 50.81 118.27 C 47.84 117.05 48.02 113.58 47.42 110.94 C 46.04 102.51 43.81 94.26 42.24 85.86 C 37.97 97.10 36.81 109.23 37.09 121.18 C 39.31 122.66 42.45 124.92 41.08 128.02 C 40.06 132.33 33.11 132.42 32.01 128.10 C 30.18 124.83 34.94 123.06 34.47 119.95 C 33.89 105.67 36.43 91.29 42.05 78.13 M 35.37 125.37 C 35.36 125.95 35.34 127.11 35.33 127.69 C 35.92 127.71 37.09 127.75 37.68 127.77 C 37.68 127.19 37.67 126.03 37.67 125.45 C 37.10 125.43 35.94 125.39 35.37 125.37 Z" />
</g>
<g id="#65b011ff">
<path fill="#65b011" opacity="1.00" d=" M 14.25 113.03 C 14.67 109.86 14.56 106.59 15.75 103.56 C 15.52 111.41 15.05 119.30 16.26 127.10 C 17.01 136.04 20.05 144.52 22.65 153.03 C 22.22 153.60 21.36 154.74 20.93 155.31 C 15.78 142.40 12.57 128.52 12.63 114.58 C 13.03 114.19 13.84 113.42 14.25 113.03 Z" />
</g>
<g id="#5eaa0eff">
<path fill="#5eaa0e" opacity="1.00" d=" M 100.11 105.01 C 117.28 114.15 134.02 124.09 151.23 133.16 C 153.39 132.85 155.96 131.47 157.93 133.07 C 161.15 135.19 160.18 141.41 155.95 141.58 C 152.56 142.19 149.94 139.12 150.15 135.90 C 133.45 126.58 116.69 117.35 100.02 107.97 C 100.04 107.23 100.09 105.75 100.11 105.01 M 153.91 135.94 C 153.17 137.14 154.54 138.05 155.02 139.03 C 156.01 138.08 156.49 136.86 156.56 135.51 C 155.67 135.61 154.79 135.76 153.91 135.94 Z" />
</g>
<g id="#6bb416ff">
<path fill="#6bb416" opacity="1.00" d=" M 120.84 105.06 C 135.51 112.62 149.59 121.32 164.16 129.09 C 163.38 129.69 162.61 130.30 161.83 130.90 C 147.34 122.88 132.82 114.91 118.52 106.56 C 119.10 106.18 120.26 105.43 120.84 105.06 Z" />
</g>
<g id="#62ac10ff">
<path fill="#62ac10" opacity="1.00" d=" M 85.76 105.86 C 94.69 110.61 103.49 115.62 112.35 120.51 C 114.43 121.33 116.92 119.88 118.92 121.14 C 121.04 122.21 120.48 125.54 122.93 126.27 C 135.97 133.53 149.05 140.70 162.09 147.94 C 163.33 148.95 164.81 147.78 166.12 147.58 C 166.76 147.99 168.04 148.81 168.68 149.22 C 166.15 149.61 163.61 149.99 161.09 150.43 C 150.28 144.51 139.44 138.64 128.75 132.50 C 132.34 136.53 136.40 140.10 140.27 143.85 C 139.87 144.24 139.05 145.02 138.64 145.41 C 132.80 139.77 127.06 134.02 121.06 128.54 C 119.44 129.40 117.90 130.82 115.95 130.75 C 114.20 130.49 112.72 129.43 111.16 128.67 C 104.47 134.15 98.65 140.59 92.33 146.48 C 91.93 146.08 91.12 145.28 90.72 144.88 C 94.62 141.18 98.62 137.57 102.22 133.57 C 92.59 138.90 82.90 144.13 73.18 149.30 C 72.49 148.96 71.11 148.28 70.42 147.94 C 75.91 144.58 81.71 141.77 87.32 138.63 C 84.03 136.05 79.98 134.76 76.50 132.48 C 76.91 131.86 77.73 130.63 78.14 130.01 C 82.28 131.99 85.84 135.05 90.12 136.72 C 91.01 136.38 93.58 136.29 92.60 134.82 C 88.76 132.30 84.47 130.57 80.58 128.12 C 80.95 127.48 81.69 126.21 82.05 125.58 C 86.62 127.66 90.69 130.64 95.09 133.02 C 96.36 134.08 98.42 133.26 99.06 131.89 C 94.14 128.81 88.89 126.28 83.89 123.34 C 84.58 122.95 85.97 122.16 86.67 121.77 C 91.79 124.75 97.17 127.28 102.10 130.57 C 103.23 130.03 104.45 129.55 105.15 128.45 C 93.99 122.69 83.14 116.34 72.05 110.45 C 73.69 110.40 75.32 110.25 76.96 110.18 C 87.10 115.07 96.73 121.07 106.71 126.33 C 108.91 127.77 111.98 125.87 111.95 123.30 C 102.21 118.04 92.50 112.69 82.83 107.28 C 83.56 106.93 85.02 106.21 85.76 105.86 M 115.18 126.48 C 115.79 126.47 117.01 126.47 117.62 126.46 C 117.71 125.13 117.65 123.77 116.00 123.50 C 115.29 124.30 115.01 125.29 115.18 126.48 Z" />
<path fill="#62ac10" opacity="1.00" d=" M 164.16 129.09 C 168.23 131.28 172.28 133.50 176.23 135.92 C 176.32 142.24 176.24 148.57 176.27 154.89 C 175.61 154.93 174.28 154.99 173.61 155.03 C 173.52 149.15 173.89 143.26 173.54 137.39 C 169.70 135.13 165.74 133.05 161.83 130.90 C 162.61 130.30 163.38 129.69 164.16 129.09 Z" />
</g>
<g id="#68b114ff">
<path fill="#68b114" opacity="1.00" d=" M 150.35 116.94 C 149.69 113.04 155.20 110.10 158.06 112.89 C 159.88 114.00 159.60 116.28 159.90 118.09 C 167.71 122.38 175.48 126.75 183.34 130.95 C 182.63 138.26 183.00 145.62 182.52 152.95 C 181.84 146.31 182.96 139.51 181.31 132.99 C 173.62 128.87 166.12 124.35 158.27 120.55 C 155.25 122.50 150.38 120.83 150.35 116.94 M 153.41 116.96 C 154.83 118.81 157.01 117.67 156.66 115.52 C 155.31 115.42 153.81 115.25 153.41 116.96 Z" />
</g>
<g id="#5faa0eff">
<path fill="#5faa0e" opacity="1.00" d=" M 19.65 116.90 C 20.33 116.92 21.68 116.95 22.36 116.97 C 22.42 126.10 24.44 135.04 26.48 143.89 C 26.09 144.22 25.33 144.87 24.95 145.19 L 24.23 145.10 C 21.30 136.06 20.14 126.41 19.65 116.90 Z" />
</g>
<g id="#5ca70bff">
<path fill="#5ca70b" opacity="1.00" d=" M 27.47 124.15 C 28.40 123.34 29.33 122.54 30.26 121.73 C 30.18 126.26 31.10 130.69 31.79 135.15 C 33.91 136.04 36.71 137.19 36.55 139.98 C 36.88 142.85 34.33 144.63 31.99 145.54 C 29.89 144.70 27.19 143.57 27.16 140.87 C 26.75 138.99 28.08 137.46 28.91 135.92 C 28.55 131.98 27.76 128.10 27.47 124.15 M 30.42 139.20 C 30.47 139.74 30.58 140.82 30.64 141.36 C 31.18 141.45 32.28 141.62 32.83 141.70 C 33.16 139.74 32.47 138.71 30.42 139.20 Z" />
</g>
<g id="#4d9900ff">
<path fill="#4d9900" opacity="1.00" d=" M 183.34 130.95 C 185.06 136.14 183.74 141.66 183.85 147.00 C 183.94 153.01 183.64 159.03 183.95 165.03 C 185.26 167.19 188.43 169.13 187.05 172.03 C 185.98 176.21 178.83 176.47 178.20 171.95 C 177.28 169.09 179.41 167.05 181.07 165.10 C 181.47 154.41 180.91 143.69 181.31 132.99 C 182.96 139.51 181.84 146.31 182.52 152.95 C 183.00 145.62 182.63 138.26 183.34 130.95 M 181.27 169.34 C 181.27 169.92 181.29 171.09 181.30 171.67 C 181.92 171.68 183.16 171.70 183.78 171.71 C 183.78 171.13 183.78 169.97 183.78 169.39 C 183.15 169.38 181.89 169.35 181.27 169.34 Z" />
</g>
<g id="#55a005ff">
<path fill="#55a005" opacity="1.00" d=" M 26.48 143.89 C 26.99 145.23 27.40 146.62 28.11 147.87 C 30.47 148.82 33.19 150.06 33.37 153.00 C 32.96 155.10 31.47 157.69 29.05 157.68 C 26.57 158.17 24.66 156.07 23.48 154.18 C 23.37 152.22 24.51 150.61 25.47 149.02 C 25.25 148.24 24.82 146.69 24.61 145.91 L 24.95 145.19 C 25.33 144.87 26.09 144.22 26.48 143.89 M 27.36 151.56 C 27.33 152.50 27.30 153.45 27.28 154.40 C 27.88 154.42 29.07 154.47 29.67 154.49 C 29.62 153.51 29.57 152.54 29.52 151.57 C 28.98 151.56 27.90 151.56 27.36 151.56 Z" />
</g>
<g id="#55a004ff">
<path fill="#55a004" opacity="1.00" d=" M 140.27 143.85 C 144.42 147.81 148.66 151.67 152.51 155.92 C 150.52 156.01 149.30 158.76 151.29 159.73 C 153.04 161.40 154.55 158.81 154.81 157.27 C 153.86 156.37 152.92 155.46 151.99 154.53 C 155.42 155.21 160.43 154.68 161.09 150.43 C 163.61 149.99 166.15 149.61 168.68 149.22 L 169.15 149.15 C 169.58 150.43 170.42 151.64 170.28 153.06 C 170.07 155.38 167.06 156.49 167.36 158.97 C 167.34 166.93 167.37 174.90 167.36 182.86 C 166.67 182.89 165.30 182.95 164.61 182.98 C 164.60 174.48 164.65 165.98 164.58 157.48 C 163.32 156.57 162.07 155.67 160.82 154.77 C 159.49 155.44 158.16 156.11 156.82 156.79 C 156.26 158.29 155.68 159.79 155.09 161.28 C 156.45 166.20 158.24 170.98 159.76 175.85 C 159.14 176.42 158.52 177.00 157.90 177.58 C 156.15 172.01 155.20 166.05 152.20 160.97 C 146.16 169.93 140.99 179.45 135.26 188.60 C 135.01 188.06 134.51 186.96 134.26 186.41 C 139.11 178.24 144.03 170.09 149.01 161.99 C 150.01 160.88 148.91 159.58 148.61 158.43 C 126.87 158.61 105.12 158.63 83.38 158.43 C 83.07 159.56 82.09 160.83 83.04 161.92 C 88.75 171.41 94.51 180.87 100.19 190.37 C 99.93 190.90 99.39 191.95 99.12 192.48 C 92.59 182.05 86.68 171.22 79.78 161.03 C 78.85 162.67 77.97 164.36 77.38 166.17 C 74.60 175.40 71.67 184.59 68.72 193.78 C 68.35 193.20 67.62 192.06 67.25 191.49 C 70.37 181.41 73.64 171.38 76.69 161.29 C 76.18 159.78 75.68 158.27 75.20 156.76 C 73.44 155.92 71.68 155.07 69.93 154.22 C 68.49 155.42 67.05 156.62 65.59 157.80 C 64.56 168.84 64.91 179.95 64.54 191.02 C 63.50 180.02 64.96 168.83 63.12 157.93 C 60.81 155.61 58.68 151.49 61.87 148.92 C 64.30 146.17 67.65 149.87 70.42 147.94 C 71.11 148.28 72.49 148.96 73.18 149.30 C 71.94 150.00 70.70 150.76 69.73 151.82 C 72.69 154.01 76.28 155.30 80.01 154.54 C 79.07 155.46 78.12 156.36 77.15 157.25 C 77.44 158.44 78.34 161.22 79.96 160.01 C 82.32 159.73 81.88 155.94 79.50 155.93 C 83.03 152.04 86.87 148.45 90.72 144.88 C 91.12 145.28 91.93 146.08 92.33 146.48 C 89.05 149.81 85.24 152.65 82.55 156.53 C 104.86 156.65 127.17 156.58 149.48 156.49 C 146.47 152.24 142.21 149.15 138.64 145.41 C 139.05 145.02 139.87 144.24 140.27 143.85 M 63.51 151.20 C 63.50 151.85 63.49 153.15 63.49 153.80 C 64.55 153.81 65.56 153.59 66.50 153.16 C 66.65 151.24 64.79 151.33 63.51 151.20 M 164.35 151.30 C 164.35 151.91 164.35 153.13 164.35 153.74 C 164.94 153.74 166.13 153.76 166.72 153.77 C 166.70 153.15 166.65 151.92 166.63 151.30 C 166.06 151.30 164.92 151.30 164.35 151.30 Z" />
</g>
<g id="#4b9900ff">
<path fill="#4b9900" opacity="1.00" d=" M 22.65 153.03 C 24.45 156.69 26.07 160.44 27.75 164.15 C 30.72 164.28 32.75 166.23 33.58 168.99 C 32.58 170.91 31.80 173.86 29.11 173.77 C 26.59 174.32 24.52 172.24 23.65 170.10 C 23.34 168.24 24.54 166.66 25.26 165.06 C 23.62 161.90 22.11 158.67 20.93 155.31 C 21.36 154.74 22.22 153.60 22.65 153.03 M 27.37 167.59 C 26.80 169.62 27.64 170.83 29.76 170.55 C 29.65 169.60 29.54 168.65 29.42 167.71 C 28.90 167.68 27.88 167.62 27.37 167.59 Z" />
</g>
<g id="#4b9801ff">
<path fill="#4b9801" opacity="1.00" d=" M 173.61 155.03 C 174.28 154.99 175.61 154.93 176.27 154.89 C 176.27 165.25 176.25 175.62 176.27 185.98 C 175.61 186.00 174.28 186.03 173.61 186.05 C 173.62 175.71 173.59 165.37 173.61 155.03 Z" />
</g>
<g id="#378800ff">
<path fill="#378800" opacity="1.00" d=" M 63.12 157.93 C 64.96 168.83 63.50 180.02 64.54 191.02 C 64.91 179.95 64.56 168.84 65.59 157.80 C 65.96 169.91 65.56 182.03 65.77 194.14 C 66.14 193.48 66.88 192.15 67.25 191.49 C 67.62 192.06 68.35 193.20 68.72 193.78 C 67.95 196.33 67.10 198.86 66.24 201.39 C 80.50 209.58 96.46 214.74 112.83 216.37 C 109.23 207.90 103.46 200.57 99.12 192.48 C 99.39 191.95 99.93 190.90 100.19 190.37 C 104.98 198.18 109.74 206.00 114.38 213.88 C 118.51 214.53 119.71 210.33 121.47 207.55 C 125.73 200.51 129.90 193.40 134.26 186.41 C 134.51 186.96 135.01 188.06 135.26 188.60 C 130.58 196.74 125.58 204.69 120.78 212.74 C 119.76 214.07 119.64 217.28 122.05 216.79 C 136.58 216.48 150.85 212.79 164.36 207.57 C 164.46 208.16 164.66 209.35 164.76 209.94 L 164.79 210.16 C 151.07 215.92 136.25 219.17 121.36 219.57 C 119.96 221.22 118.51 223.50 115.97 222.95 C 113.49 223.07 112.40 220.57 111.06 218.96 C 94.50 217.09 78.19 211.76 63.93 203.08 C 62.11 201.67 62.95 198.98 62.79 196.99 C 63.98 183.99 61.89 170.93 63.12 157.93 M 115.32 217.29 C 115.29 217.87 115.24 219.03 115.21 219.62 C 115.84 219.57 117.10 219.48 117.73 219.44 C 118.04 218.05 116.80 215.76 115.32 217.29 Z" />
</g>
<g id="#3f8e00ff">
<path fill="#3f8e00" opacity="1.00" d=" M 158.16 177.60 C 158.77 177.67 159.97 177.80 160.57 177.86 C 161.49 182.09 162.73 186.24 164.42 190.23 C 164.56 187.81 164.62 185.40 164.61 182.98 C 165.30 182.95 166.67 182.89 167.36 182.86 C 167.45 190.55 167.21 198.24 167.50 205.92 C 169.52 204.77 171.55 203.64 173.58 202.51 C 173.65 197.03 173.59 191.54 173.61 186.05 C 174.28 186.03 175.61 186.00 176.27 185.98 C 176.26 191.94 176.32 197.90 176.23 203.87 C 172.60 206.23 168.89 208.56 164.76 209.94 C 164.66 209.35 164.46 208.16 164.36 207.57 C 166.37 197.01 160.54 187.54 158.16 177.60 Z" />
</g>
<g id="#969696ff">
<path fill="#969696" opacity="1.00" d=" M 81.29 292.08 C 80.62 287.70 86.81 285.33 89.58 288.44 C 91.21 289.78 90.51 292.12 90.74 293.95 C 96.01 298.70 100.88 303.91 106.41 308.36 C 112.07 310.76 118.20 311.80 123.99 313.87 C 129.01 315.71 134.38 316.49 139.27 318.66 C 140.60 320.91 140.76 323.64 141.53 326.11 C 143.00 332.57 145.52 338.88 145.72 345.58 C 137.35 343.75 129.39 340.33 121.11 338.10 L 121.26 337.32 L 121.47 336.19 L 121.63 335.32 C 128.73 337.38 135.57 340.29 142.78 341.96 C 140.77 334.95 139.54 327.74 137.34 320.79 C 126.66 317.19 115.67 314.55 105.03 310.84 C 99.37 306.39 94.63 300.72 88.98 296.32 C 85.77 297.07 81.48 295.96 81.29 292.08 M 85.07 290.37 C 85.14 290.95 85.29 292.12 85.36 292.71 C 86.51 294.69 87.64 291.70 87.58 290.71 C 86.95 290.62 85.69 290.45 85.07 290.37 Z" />
</g>
<g id="#858585ff">
<path fill="#858585" opacity="1.00" d=" M 47.12 294.06 C 49.30 291.86 51.71 289.90 54.23 288.11 C 54.53 288.61 55.11 289.61 55.40 290.11 C 60.85 314.82 65.85 339.65 71.43 364.34 C 83.73 370.98 96.09 377.58 108.10 384.73 C 109.99 383.96 111.95 382.86 111.91 380.54 C 103.56 376.17 95.37 371.50 87.10 366.97 C 84.23 365.17 80.85 364.12 78.38 361.75 C 78.12 349.92 78.18 338.06 78.35 326.23 C 82.89 321.99 88.41 318.95 93.21 315.00 C 90.18 314.12 87.14 313.28 84.10 312.46 C 81.65 315.56 76.35 315.04 75.41 310.95 C 74.30 307.61 77.21 305.40 80.00 304.55 C 81.36 305.28 82.71 306.05 84.03 306.86 C 84.77 311.84 90.95 310.76 94.46 312.36 C 95.58 313.05 98.59 313.03 97.55 315.08 C 92.44 319.91 85.81 323.03 80.87 327.97 C 80.61 338.68 80.87 349.42 80.71 360.14 C 91.25 366.44 102.18 372.06 112.84 378.13 C 114.83 378.54 116.96 377.83 118.95 378.46 C 120.67 379.73 120.63 382.40 122.54 383.45 C 128.17 386.57 133.84 389.64 139.46 392.81 C 138.80 393.21 137.49 394.02 136.84 394.43 C 134.26 393.00 131.71 391.53 129.25 389.91 C 129.11 389.75 128.83 389.42 128.69 389.25 C 128.04 389.92 127.40 390.59 126.77 391.27 C 124.85 389.45 122.92 387.65 121.00 385.83 C 119.39 386.73 117.76 387.61 116.11 388.46 C 114.49 387.64 112.92 386.70 111.20 386.12 C 108.59 387.82 106.44 390.12 104.24 392.30 C 103.58 391.59 102.93 390.88 102.28 390.17 C 102.13 390.36 101.83 390.75 101.68 390.94 C 99.02 392.74 96.16 394.23 93.36 395.77 C 93.10 395.43 92.58 394.73 92.32 394.38 C 92.43 393.79 92.63 392.60 92.73 392.01 C 81.23 386.03 70.00 379.56 58.60 373.40 C 57.48 372.66 55.94 372.05 55.63 370.59 C 53.54 362.61 51.93 354.50 50.31 346.41 C 48.49 338.56 46.70 330.70 45.36 322.75 C 44.40 323.66 43.48 324.64 42.84 325.82 C 37.00 336.40 32.54 347.91 31.00 359.96 C 29.45 370.74 29.88 381.73 31.62 392.47 C 31.10 392.33 30.05 392.07 29.53 391.93 L 28.84 391.24 C 23.93 365.11 30.35 336.98 46.35 315.72 C 50.39 333.51 54.20 351.35 57.76 369.25 C 70.42 376.77 83.62 383.35 96.20 391.01 C 97.30 390.53 98.41 390.00 99.07 388.96 C 86.80 382.56 74.94 375.39 62.60 369.12 C 57.80 348.21 53.40 327.17 49.07 306.14 C 28.51 327.49 18.50 358.70 23.63 387.99 C 24.11 391.44 25.29 394.78 25.48 398.27 C 24.83 398.21 23.52 398.09 22.87 398.03 C 19.89 384.57 18.51 370.59 20.91 356.92 C 23.91 337.18 33.40 318.56 47.11 304.09 C 48.07 302.90 49.45 302.24 50.88 301.81 C 55.42 322.90 59.86 344.01 64.38 365.10 C 64.41 366.65 65.60 367.55 66.86 368.20 C 78.34 374.40 89.66 380.89 101.13 387.10 C 102.42 387.90 104.72 387.69 104.96 385.88 C 93.03 379.05 80.80 372.71 68.86 365.88 C 63.58 341.53 58.44 317.16 53.11 292.82 C 52.76 293.04 52.06 293.47 51.72 293.68 C 35.04 308.89 22.71 329.02 17.56 351.06 C 14.60 365.15 14.83 379.80 17.75 393.88 C 17.06 394.68 16.38 395.49 15.69 396.30 C 10.53 376.53 11.93 355.29 19.21 336.25 C 25.27 320.36 35.04 305.98 47.12 294.06 M 78.68 308.51 C 78.64 309.03 78.57 310.08 78.53 310.60 C 79.24 310.73 80.66 310.99 81.37 311.12 C 81.24 309.30 80.70 307.79 78.68 308.51 M 115.14 381.21 C 115.16 381.86 115.19 383.15 115.21 383.80 C 115.83 383.77 117.07 383.71 117.69 383.68 C 117.67 383.09 117.63 381.90 117.61 381.30 C 116.99 381.28 115.76 381.23 115.14 381.21 Z" />
</g>
<g id="#8c8c8cff">
<path fill="#8c8c8c" opacity="1.00" d=" M 87.25 331.22 C 93.67 326.51 100.29 322.09 106.87 317.62 C 110.84 318.93 114.81 320.23 118.85 321.33 C 121.11 322.23 122.73 319.56 124.93 319.62 C 127.57 319.81 130.31 322.22 129.71 325.08 C 129.44 327.54 126.89 328.57 124.99 329.60 C 122.28 328.95 120.75 326.79 119.49 324.50 C 115.51 322.81 111.19 321.91 107.03 320.72 C 101.72 324.48 96.30 328.10 91.00 331.87 C 89.36 333.04 89.91 335.28 89.77 337.01 C 89.85 343.32 89.58 349.64 89.84 355.95 C 91.30 357.97 93.78 358.79 95.86 359.99 C 113.97 369.87 131.92 380.05 149.99 390.01 C 152.39 391.53 155.32 388.16 157.65 390.30 C 162.18 392.89 158.80 400.93 153.64 398.77 C 153.31 398.67 152.64 398.46 152.30 398.36 C 151.87 397.84 151.01 396.81 150.57 396.29 C 150.53 395.57 150.45 394.13 150.41 393.41 C 129.42 381.47 108.18 369.97 87.12 358.17 C 87.31 349.19 87.04 340.20 87.25 331.22 M 123.17 323.41 C 123.49 324.83 124.34 325.89 125.89 326.07 C 125.84 325.37 125.75 323.96 125.71 323.26 C 125.08 323.30 123.80 323.37 123.17 323.41 M 153.16 393.16 C 153.20 393.80 153.30 395.10 153.34 395.74 C 154.12 395.93 155.69 396.31 156.47 396.50 C 156.27 395.49 158.13 392.84 156.00 393.22 C 155.56 393.23 154.68 393.24 154.24 393.25 L 153.16 393.16 Z" />
</g>
<g id="#888888ff">
<path fill="#888888" opacity="1.00" d=" M 103.80 334.97 C 105.88 333.88 107.63 332.03 109.96 331.53 C 113.82 332.54 117.53 334.04 121.34 335.24 L 121.47 336.19 L 121.26 337.32 C 117.53 337.73 113.81 335.07 109.96 334.63 C 107.24 335.81 104.71 337.45 102.44 339.37 C 101.84 343.42 102.07 347.66 102.30 351.76 C 111.43 357.40 121.10 362.20 130.42 367.54 C 139.53 372.49 148.36 377.91 157.53 382.76 C 157.11 383.24 156.28 384.19 155.86 384.67 C 145.59 379.73 135.94 373.53 125.87 368.17 C 117.21 363.16 108.16 358.73 99.68 353.44 C 99.19 348.95 99.49 344.40 99.46 339.89 C 99.10 337.22 102.03 336.20 103.80 334.97 Z" />
</g>
<g id="#7d7d7dff">
<path fill="#7d7d7d" opacity="1.00" d=" M 41.76 336.32 C 43.43 335.07 43.62 337.57 44.08 338.63 C 46.65 349.88 48.49 361.34 51.55 372.47 C 63.35 379.44 75.78 385.40 87.32 392.86 C 87.09 393.29 86.62 394.16 86.39 394.60 C 84.77 394.64 83.44 393.62 82.07 392.94 C 70.97 386.55 59.45 380.90 48.59 374.11 C 46.73 363.64 44.28 353.28 42.16 342.86 C 38.25 354.46 36.54 366.72 37.20 378.95 C 39.15 379.97 41.65 381.40 41.36 384.01 C 41.44 388.48 34.72 390.57 32.55 386.49 C 30.41 383.94 32.48 380.91 34.51 379.12 C 33.76 364.55 36.01 349.76 41.76 336.32 M 35.50 382.65 C 34.76 383.77 34.97 384.67 36.13 385.36 C 37.65 385.87 38.59 383.63 37.49 382.67 C 36.99 382.67 35.99 382.66 35.50 382.65 Z" />
</g>
<g id="#787878ff">
<path fill="#787878" opacity="1.00" d=" M 150.53 375.62 C 149.02 371.87 152.95 368.25 156.61 369.49 C 159.39 369.97 159.88 372.88 159.88 375.23 C 167.56 380.03 175.87 383.77 183.50 388.64 C 184.30 399.98 183.64 411.46 183.74 422.85 C 182.65 419.68 182.74 416.29 182.53 412.99 C 182.32 416.29 182.27 419.65 181.29 422.84 C 181.14 412.55 181.26 402.25 181.21 391.95 C 181.66 390.38 180.05 389.71 179.02 389.08 C 172.31 385.43 165.70 381.58 158.89 378.13 C 155.90 378.93 151.82 379.15 150.53 375.62 M 154.97 375.29 C 157.43 375.49 156.18 372.71 154.93 371.98 C 154.09 373.00 152.79 375.02 154.97 375.29 Z" />
</g>
<g id="#737373ff">
<path fill="#737373" opacity="1.00" d=" M 157.53 382.76 C 162.71 385.39 167.65 388.46 172.82 391.12 C 174.22 392.07 176.57 392.88 176.26 394.99 C 176.31 417.02 176.22 439.06 176.28 461.10 C 174.43 462.35 172.59 463.63 170.55 464.57 C 169.99 464.20 168.85 463.46 168.28 463.09 C 170.04 461.95 171.90 460.96 173.50 459.61 C 173.80 438.00 173.50 416.37 173.65 394.76 C 167.68 391.43 161.66 388.21 155.73 384.82 L 155.86 384.67 C 156.28 384.19 157.11 383.24 157.53 382.76 Z" />
<path fill="#737373" opacity="1.00" d=" M 126.77 391.27 C 127.40 390.59 128.04 389.92 128.69 389.25 C 128.83 389.42 129.11 389.75 129.25 389.91 C 131.89 393.52 135.36 396.37 138.53 399.48 C 142.58 403.44 146.61 407.43 150.80 411.24 C 152.55 411.63 154.29 412.06 156.02 412.54 C 158.17 411.51 160.22 410.22 161.48 408.13 C 153.35 403.41 145.00 399.09 136.84 394.43 C 137.49 394.02 138.80 393.21 139.46 392.81 C 142.96 394.76 146.75 396.30 149.79 398.97 C 150.63 398.79 151.47 398.59 152.30 398.36 C 152.64 398.46 153.31 398.67 153.64 398.77 C 153.34 399.72 153.55 401.06 154.81 401.26 C 157.44 402.82 160.18 404.18 162.90 405.57 C 165.25 405.05 168.28 404.91 169.53 407.44 C 171.41 409.98 169.61 413.01 167.41 414.59 C 167.31 427.43 167.36 440.27 167.37 453.10 C 166.58 453.19 165.02 453.38 164.23 453.47 C 160.10 441.92 156.76 430.11 152.90 418.48 C 150.37 420.15 149.11 422.97 147.59 425.46 C 145.55 428.91 143.47 432.34 141.38 435.76 C 141.12 435.22 140.61 434.15 140.35 433.61 C 143.49 428.38 146.59 423.12 149.86 417.96 C 149.42 417.41 148.55 416.32 148.12 415.77 C 126.69 415.83 105.25 415.83 83.82 415.77 C 83.42 416.32 82.62 417.42 82.21 417.97 C 83.57 420.10 84.92 422.24 86.16 424.45 C 85.90 424.99 85.38 426.08 85.12 426.62 C 83.63 424.11 82.05 421.66 80.56 419.15 C 80.09 419.24 79.15 419.41 78.68 419.50 C 77.79 422.39 76.84 425.27 76.00 428.18 C 75.64 427.58 74.90 426.38 74.53 425.78 C 76.02 422.11 77.19 418.15 75.43 414.33 C 73.58 413.43 71.74 412.50 69.92 411.55 C 68.53 412.72 67.14 413.88 65.72 415.02 C 65.58 427.35 65.89 439.69 65.51 452.01 C 63.73 454.42 63.81 457.47 63.69 460.32 C 62.63 454.61 63.55 448.72 63.21 442.94 C 62.82 433.66 63.88 424.31 62.66 415.10 C 61.03 412.79 59.09 409.78 61.06 407.03 C 62.75 404.16 66.24 405.73 68.86 405.79 C 74.96 402.89 80.78 399.39 86.76 396.22 C 86.67 395.82 86.48 395.01 86.39 394.60 C 86.62 394.16 87.09 393.29 87.32 392.86 C 88.89 393.66 90.62 394.00 92.32 394.38 C 92.58 394.73 93.10 395.43 93.36 395.77 C 85.41 400.32 77.13 404.27 69.29 409.00 C 71.50 410.19 73.69 411.47 76.09 412.25 C 81.60 412.51 84.86 407.68 88.48 404.38 C 92.82 399.84 97.96 396.04 101.68 390.94 C 101.83 390.75 102.13 390.36 102.28 390.17 C 102.93 390.88 103.58 391.59 104.24 392.30 C 96.91 399.42 89.48 406.42 82.20 413.59 C 85.46 413.91 88.73 413.95 92.00 413.91 C 111.26 413.78 130.52 414.02 149.77 413.75 C 142.34 406.03 134.48 398.71 126.77 391.27 M 63.53 408.38 C 63.59 409.44 63.66 410.50 63.74 411.56 C 64.94 411.32 66.01 410.69 66.98 409.97 C 66.03 409.02 64.83 408.54 63.53 408.38 M 164.49 408.65 C 163.77 409.77 163.98 410.68 165.13 411.39 C 166.67 411.88 167.56 409.55 166.44 408.63 C 165.95 408.63 164.98 408.64 164.49 408.65 M 156.60 414.33 C 156.01 416.56 154.68 418.89 155.76 421.21 C 158.97 430.04 161.26 439.16 164.36 448.02 C 164.89 436.97 164.53 425.89 164.57 414.82 C 163.33 413.96 162.10 413.09 160.89 412.20 C 159.46 412.91 158.03 413.63 156.60 414.33 M 78.37 413.59 C 75.49 414.70 78.74 419.35 80.73 416.97 C 82.92 415.51 80.47 412.10 78.37 413.59 M 151.48 413.60 C 149.40 414.08 150.23 417.37 152.10 417.49 C 153.39 418.04 154.89 416.31 154.64 415.02 C 154.71 413.51 152.53 412.90 151.48 413.60 Z" />
<path fill="#737373" opacity="1.00" d=" M 22.87 398.03 C 23.52 398.09 24.83 398.21 25.48 398.27 C 27.39 399.88 26.10 404.56 29.10 405.57 C 31.14 406.26 32.85 407.73 33.35 409.91 C 33.36 412.21 31.65 415.00 29.07 414.87 C 26.54 415.36 24.29 413.42 23.52 411.14 C 23.56 409.29 24.72 407.75 25.46 406.13 C 24.48 403.46 23.66 400.75 22.87 398.03 M 27.42 409.29 C 27.33 409.87 27.16 411.02 27.07 411.60 C 27.77 411.62 29.15 411.66 29.85 411.68 C 30.11 410.15 29.17 407.98 27.42 409.29 Z" />
</g>
<g id="#777777ff">
<path fill="#777777" opacity="1.00" d=" M 29.53 391.93 C 30.05 392.07 31.10 392.33 31.62 392.47 C 33.67 393.33 36.62 394.34 36.52 397.05 C 37.05 400.09 33.91 402.96 30.93 402.42 C 29.26 401.87 27.64 400.62 27.24 398.83 C 26.57 396.26 28.48 394.08 29.53 391.93 M 30.35 396.49 C 30.30 398.12 31.08 399.16 32.78 399.30 C 32.77 398.54 32.76 397.02 32.75 396.25 C 32.15 396.31 30.95 396.43 30.35 396.49 Z" />
</g>
<g id="#565656b9">
<path fill="#565656" opacity="0.73" d=" M 153.16 393.16 L 154.24 393.25 C 152.90 395.84 157.14 395.87 156.00 393.22 C 158.13 392.84 156.27 395.49 156.47 396.50 C 155.69 396.31 154.12 395.93 153.34 395.74 C 153.30 395.10 153.20 393.80 153.16 393.16 Z" />
</g>
<g id="#0e0e0e1e">
<path fill="#0e0e0e" opacity="0.12" d=" M 154.24 393.25 C 154.68 393.24 155.56 393.23 156.00 393.22 C 157.14 395.87 152.90 395.84 154.24 393.25 Z" />
</g>
<g id="#6d6d6dff">
<path fill="#6d6d6d" opacity="1.00" d=" M 15.69 396.30 C 16.38 395.49 17.06 394.68 17.75 393.88 C 20.20 403.32 23.32 412.59 27.70 421.33 C 29.46 422.03 31.76 422.31 32.67 424.23 C 33.37 426.75 32.83 430.09 30.00 431.01 C 27.83 432.21 25.53 430.37 24.32 428.66 C 22.63 426.62 24.63 424.31 25.09 422.23 C 21.17 413.91 17.63 405.32 15.69 396.30 M 27.18 425.24 C 27.22 425.92 27.29 427.29 27.32 427.97 C 29.18 428.10 30.06 427.16 29.89 425.32 C 29.21 425.30 27.86 425.26 27.18 425.24 Z" />
</g>
<g id="#6b6b6bff">
<path fill="#6b6b6b" opacity="1.00" d=" M 182.53 412.99 C 182.74 416.29 182.65 419.68 183.74 422.85 C 186.15 424.49 188.93 427.65 186.43 430.48 C 184.59 434.08 178.50 433.13 178.16 429.01 C 177.36 426.25 179.22 424.27 181.29 422.84 C 182.27 419.65 182.32 416.29 182.53 412.99 M 181.25 426.32 C 180.38 428.33 183.58 431.16 183.76 427.84 C 184.50 426.28 181.99 426.83 181.25 426.32 Z" />
</g>
<g id="#606060ff">
<path fill="#606060" opacity="1.00" d=" M 86.16 424.45 C 95.87 440.14 105.07 456.14 114.92 471.75 C 116.42 471.08 118.23 470.63 119.01 469.01 C 126.14 457.22 133.13 445.34 140.35 433.61 C 140.61 434.15 141.12 435.22 141.38 435.76 C 134.67 447.24 127.71 458.57 120.86 469.96 C 119.82 471.26 120.39 472.91 120.50 474.40 C 135.59 473.47 150.68 470.72 164.57 464.61 C 164.63 460.90 164.75 457.16 164.23 453.47 C 165.02 453.38 166.58 453.19 167.37 453.10 C 167.37 456.22 167.38 459.33 167.34 462.45 C 167.57 462.61 168.05 462.93 168.28 463.09 C 168.85 463.46 169.99 464.20 170.55 464.57 C 162.67 469.04 153.90 471.80 145.07 473.73 C 137.84 475.59 130.43 476.68 122.96 476.86 C 120.09 476.84 119.07 481.01 115.99 480.43 C 113.69 480.37 112.50 478.09 111.17 476.57 C 94.57 474.00 78.03 469.26 63.69 460.32 C 63.81 457.47 63.73 454.42 65.51 452.01 C 69.70 443.73 71.19 434.41 74.53 425.78 C 74.90 426.38 75.64 427.58 76.00 428.18 C 72.94 438.47 69.41 448.62 66.39 458.92 C 80.74 466.74 96.53 472.37 112.92 473.53 C 111.10 469.38 108.59 465.60 106.24 461.75 C 99.24 450.02 92.05 438.40 85.12 426.62 C 85.38 426.08 85.90 424.99 86.16 424.45 M 115.08 474.25 C 115.14 474.88 115.26 476.14 115.31 476.76 C 117.24 477.48 117.94 476.20 117.78 474.46 C 117.11 474.41 115.76 474.30 115.08 474.25 Z" />
</g>
<g id="#d1d1d1ff">
<path fill="#d1d1d1" opacity="1.00" d=" M 82.11 553.83 C 79.60 550.60 82.97 545.37 86.97 546.37 C 90.43 546.66 91.17 550.43 90.68 553.25 C 96.26 557.95 101.02 563.62 106.85 568.00 C 117.65 571.35 128.57 574.40 139.36 577.80 C 140.73 581.41 141.44 585.21 142.48 588.92 C 143.77 594.14 145.62 599.30 145.76 604.73 C 140.22 604.27 135.18 601.64 129.90 600.13 C 123.19 598.20 116.66 595.71 109.96 593.73 C 107.28 595.30 104.54 596.86 102.20 598.93 C 102.03 603.00 102.20 607.08 102.10 611.17 C 113.98 617.89 126.01 624.36 137.94 631.01 C 150.48 638.69 163.86 644.93 176.28 652.79 C 176.29 675.29 176.22 697.78 176.31 720.28 C 168.27 726.23 158.65 729.59 149.07 732.16 C 140.55 734.48 131.83 735.78 123.02 736.25 C 120.20 735.70 119.78 739.80 117.09 739.68 C 114.25 740.37 112.57 737.68 111.13 735.75 C 94.65 733.64 78.40 728.53 64.15 719.90 C 61.40 718.33 63.50 714.55 63.19 712.01 C 62.75 703.68 62.56 695.32 63.17 687.00 C 62.96 682.68 62.81 678.37 62.67 674.06 C 60.21 671.87 59.02 667.52 62.14 665.34 C 64.45 662.76 67.42 666.65 69.81 664.76 C 75.42 661.71 81.04 658.67 86.65 655.62 C 86.68 655.35 86.74 654.82 86.77 654.55 C 78.28 650.41 70.15 645.57 61.82 641.11 C 57.53 638.37 52.57 636.68 48.74 633.26 C 48.54 632.69 48.15 631.54 47.96 630.97 C 47.72 629.28 47.46 627.59 47.18 625.92 C 45.66 617.88 43.68 609.94 42.15 601.90 C 41.03 605.63 39.98 609.39 39.21 613.21 L 38.86 613.69 C 37.55 621.06 36.92 628.56 36.83 636.04 C 36.40 638.77 39.91 639.06 40.81 641.13 C 42.50 643.81 40.23 647.95 37.02 647.84 C 33.18 648.74 29.95 643.49 32.69 640.59 C 33.29 639.42 34.80 638.55 34.48 637.08 C 33.81 622.69 36.42 608.23 41.99 594.96 C 43.85 595.92 44.05 598.09 44.51 599.91 C 46.76 610.68 48.84 621.49 51.58 632.15 C 64.62 638.87 77.43 646.10 90.02 653.63 C 90.84 652.90 93.47 653.11 92.72 651.52 C 80.46 644.62 67.96 638.13 55.81 631.03 C 52.13 614.65 48.51 598.25 45.28 581.77 C 41.89 585.75 40.08 590.75 37.72 595.35 C 29.98 613.06 28.28 633.11 31.85 652.02 C 33.83 652.75 36.36 653.55 36.51 656.08 C 37.35 660.01 32.57 663.28 29.22 661.06 C 26.37 659.21 26.63 655.04 28.89 652.84 C 26.89 638.96 26.22 624.57 29.81 610.88 C 32.76 597.91 38.50 585.64 46.32 574.90 C 49.42 587.90 51.92 601.03 54.85 614.08 C 56.06 618.72 56.50 623.54 57.79 628.17 C 59.26 629.81 61.34 630.72 63.20 631.83 C 71.04 635.98 78.71 640.41 86.53 644.60 C 89.78 646.30 92.65 648.79 96.17 649.93 C 97.22 649.65 99.21 649.98 98.83 648.31 C 86.72 641.58 74.58 634.89 62.45 628.19 C 59.17 613.82 56.31 599.34 53.13 584.95 C 51.65 578.62 50.57 572.20 49.20 565.85 C 47.23 566.92 46.01 568.87 44.54 570.50 C 33.32 584.04 25.92 600.66 23.32 618.05 C 20.90 633.58 23.10 649.50 27.77 664.41 C 30.97 665.06 34.98 668.42 32.62 671.88 C 30.83 675.90 25.16 674.70 23.65 671.07 C 23.31 669.09 24.36 667.37 25.50 665.88 C 20.35 650.58 18.32 634.06 20.66 618.04 C 23.03 599.87 31.00 582.57 42.65 568.48 C 44.94 565.86 47.18 563.13 50.03 561.09 C 50.27 561.32 50.76 561.78 51.00 562.01 C 55.81 583.31 59.89 604.79 64.88 626.04 C 76.32 633.15 88.50 639.20 100.19 645.97 C 101.54 647.00 103.25 646.65 104.82 646.53 C 104.76 646.13 104.64 645.33 104.58 644.93 C 92.68 638.29 80.59 631.94 68.79 625.12 C 63.66 600.71 58.28 576.34 53.22 551.91 C 36.28 566.26 23.99 586.06 18.26 607.50 C 12.07 632.08 16.37 658.54 27.83 680.91 C 31.33 680.78 34.78 684.64 32.60 687.92 C 31.36 691.30 26.33 691.45 24.56 688.44 C 22.71 686.40 23.98 683.74 25.32 681.86 C 16.86 664.95 11.93 646.00 12.63 627.03 C 14.02 596.93 29.51 568.53 52.09 548.99 C 52.90 547.95 54.19 548.39 55.31 548.42 C 58.91 567.01 63.34 585.42 67.02 604.00 C 68.63 610.47 69.70 617.10 71.53 623.50 C 83.31 630.22 95.28 636.62 107.11 643.24 C 108.58 644.29 110.09 642.79 111.46 642.33 C 111.55 641.73 111.74 640.52 111.84 639.92 C 100.63 633.83 89.49 627.65 78.33 621.47 C 78.16 609.40 78.24 597.31 78.32 585.24 C 83.21 581.65 88.14 578.13 93.06 574.60 C 89.58 573.26 85.32 570.91 81.81 573.28 C 78.88 575.07 74.98 572.36 75.34 569.04 C 74.87 565.67 78.64 563.51 81.59 564.58 C 83.87 565.11 84.17 567.73 85.50 569.28 C 89.61 570.44 93.81 571.35 97.81 572.91 C 97.58 575.00 95.65 576.03 94.17 577.21 C 89.67 580.38 85.23 583.63 80.76 586.84 C 80.75 597.23 80.74 607.62 80.75 618.01 C 80.43 619.90 82.61 620.61 83.85 621.46 C 93.61 626.75 103.31 632.13 112.98 637.55 C 115.46 637.47 118.18 636.85 120.20 638.70 C 120.65 639.86 120.83 641.20 121.63 642.21 C 134.56 649.38 147.50 656.53 160.45 663.67 C 163.11 665.85 167.35 663.04 169.34 666.43 C 171.44 669.00 169.85 672.20 167.42 673.79 C 167.34 689.93 167.33 706.08 167.42 722.22 C 169.52 721.33 171.58 720.33 173.58 719.22 C 173.61 697.41 173.67 675.61 173.57 653.81 C 162.28 648.06 151.34 641.63 140.18 635.62 C 126.87 627.60 112.79 620.82 99.61 612.66 C 99.25 607.57 99.50 602.45 99.49 597.36 C 102.63 594.69 106.32 592.81 109.82 590.68 C 120.73 594.50 131.82 597.77 142.74 601.56 C 140.70 594.41 139.78 586.89 137.07 579.97 C 127.08 576.74 116.92 574.06 106.93 570.85 C 105.09 570.33 103.46 569.26 102.14 567.89 C 97.88 563.63 93.39 559.60 89.16 555.31 C 86.79 555.56 83.62 556.31 82.11 553.83 M 84.42 551.00 C 84.98 551.63 85.54 552.28 86.11 552.93 C 87.68 551.77 87.75 550.43 86.17 549.27 C 85.59 549.84 85.00 550.41 84.42 551.00 M 77.93 568.98 C 78.75 569.54 79.56 570.12 80.39 570.68 C 80.71 570.22 81.37 569.28 81.69 568.82 C 80.49 567.20 79.16 567.64 77.93 568.98 M 115.41 643.62 C 117.19 643.30 118.04 642.18 117.60 640.35 C 115.18 639.86 114.84 641.66 115.41 643.62 M 35.26 642.21 C 35.31 642.78 35.41 643.91 35.46 644.48 C 36.00 644.48 37.09 644.47 37.63 644.47 C 37.65 643.91 37.69 642.80 37.71 642.24 C 37.10 642.23 35.88 642.22 35.26 642.21 M 117.15 647.41 C 114.85 647.96 113.02 646.15 111.10 645.24 C 104.60 650.99 98.63 657.31 92.23 663.18 C 88.92 666.47 85.26 669.43 82.38 673.14 C 90.57 673.51 98.78 673.21 106.99 673.30 C 121.25 673.09 135.53 673.51 149.80 673.08 C 140.54 663.43 130.59 654.47 121.01 645.14 C 119.78 645.98 118.54 646.83 117.15 647.41 M 149.08 669.03 C 150.66 671.19 153.56 670.97 155.86 671.80 C 158.04 670.80 161.04 670.08 160.99 667.09 C 150.28 661.20 139.59 655.27 128.90 649.34 C 135.35 656.16 142.50 662.32 149.08 669.03 M 70.32 667.58 C 70.26 667.87 70.13 668.45 70.06 668.74 C 71.94 669.97 73.99 670.95 76.15 671.61 C 77.83 671.35 79.49 670.94 81.18 670.67 C 88.12 663.81 95.40 657.30 102.26 650.36 C 91.55 655.98 80.98 661.86 70.32 667.58 M 30.44 655.42 C 30.49 656.33 30.64 657.23 30.90 658.12 C 32.08 658.75 32.91 657.61 33.75 657.01 C 32.88 655.99 31.75 655.47 30.44 655.42 M 63.48 668.32 C 63.51 668.92 63.56 670.11 63.59 670.70 C 64.50 670.58 65.41 670.43 66.31 670.24 C 66.51 669.11 65.76 668.26 65.19 667.40 C 64.76 667.63 63.91 668.09 63.48 668.32 M 164.52 667.75 C 164.46 668.74 164.41 669.74 164.38 670.76 C 166.63 671.04 167.06 669.71 166.51 667.75 C 166.01 667.75 165.02 667.75 164.52 667.75 M 29.44 671.63 C 29.48 670.27 30.51 667.72 28.14 668.32 C 25.89 668.53 27.61 671.73 29.44 671.63 M 65.76 674.12 C 65.73 686.29 65.57 698.46 65.83 710.62 C 70.20 701.37 72.06 691.09 75.71 681.52 C 77.14 678.82 76.04 676.08 75.25 673.42 C 73.48 672.65 71.72 671.85 70.00 671.00 C 68.61 672.07 67.20 673.12 65.76 674.12 M 152.23 672.54 C 149.19 672.73 150.08 677.29 152.91 676.90 C 155.47 676.23 155.09 672.09 152.23 672.54 M 156.67 673.55 C 156.10 675.78 154.59 678.06 155.73 680.38 C 158.94 689.18 161.26 698.27 164.29 707.14 C 164.97 696.76 164.45 686.32 164.60 675.93 C 165.09 673.54 162.29 672.82 160.97 671.45 C 159.54 672.15 158.11 672.86 156.67 673.55 M 77.45 673.51 C 76.22 675.78 79.58 678.22 81.05 675.95 C 83.13 673.63 79.08 670.97 77.45 673.51 M 82.75 678.07 C 93.35 695.56 103.83 713.13 114.52 730.57 C 115.38 730.49 117.11 730.32 117.97 730.24 C 128.27 712.68 138.89 695.31 149.43 677.90 C 150.16 676.46 148.43 674.85 146.99 675.23 C 126.33 675.23 105.67 675.25 85.00 675.24 C 83.45 674.75 81.79 676.71 82.75 678.07 M 78.40 680.00 C 74.30 692.70 70.42 705.48 66.30 718.19 C 78.62 724.96 91.95 729.92 105.85 732.20 C 108.14 732.47 110.46 732.81 112.77 732.57 C 112.16 730.62 110.99 728.93 109.99 727.18 C 100.33 711.41 90.93 695.48 81.26 679.72 C 80.81 677.71 78.53 678.24 78.40 680.00 M 149.98 680.82 C 139.93 697.62 129.87 714.41 119.71 731.14 C 119.98 731.75 120.53 732.96 120.81 733.57 C 123.87 733.51 126.95 733.52 129.96 732.88 C 132.29 732.58 134.65 732.42 136.96 731.90 C 146.45 730.66 155.52 727.52 164.44 724.16 C 164.70 720.37 164.74 716.55 164.27 712.78 C 160.03 701.57 157.01 689.94 153.10 678.63 C 151.41 677.57 150.64 679.76 149.98 680.82 M 27.18 684.43 C 27.12 685.49 27.34 686.48 27.84 687.38 C 29.76 687.45 29.86 686.01 29.75 684.55 C 29.11 684.52 27.82 684.46 27.18 684.43 M 115.21 733.53 C 115.28 734.57 115.37 735.62 115.47 736.69 C 117.06 736.31 118.00 735.37 117.64 733.66 C 117.03 733.63 115.82 733.56 115.21 733.53 Z" />
<path fill="#d1d1d1" opacity="1.00" d=" M 87.39 590.47 C 93.48 585.81 100.05 581.84 106.17 577.23 C 110.95 577.84 115.38 579.94 120.11 580.79 C 122.63 579.55 126.05 578.02 128.40 580.40 C 131.80 583.46 128.22 589.35 124.00 588.49 C 121.45 588.12 120.59 585.56 119.56 583.60 C 115.34 582.62 111.33 580.81 107.05 580.09 C 102.04 583.37 97.24 586.97 92.22 590.25 C 91.21 590.87 90.45 591.80 89.69 592.71 C 90.00 600.13 89.53 607.57 89.85 614.99 C 89.98 616.32 91.42 616.79 92.37 617.44 C 112.09 628.08 131.58 639.15 151.20 649.97 C 152.53 649.50 153.86 649.02 155.17 648.52 C 157.61 649.28 160.32 651.09 159.74 654.06 C 160.01 657.93 154.58 659.62 151.98 657.17 C 150.42 656.23 150.42 654.35 150.24 652.78 C 130.31 641.27 110.05 630.33 89.93 619.14 C 88.71 618.39 86.73 617.95 87.19 616.06 C 87.28 607.54 86.89 598.97 87.39 590.47 M 123.32 582.42 C 123.49 583.26 123.71 584.09 123.97 584.91 C 124.64 584.80 125.99 584.58 126.67 584.46 C 126.17 582.87 125.03 582.08 123.32 582.42 M 153.42 652.62 C 153.71 653.56 153.89 654.72 155.09 654.95 C 156.65 655.06 156.39 653.51 156.63 652.51 C 155.56 652.52 154.49 652.56 153.42 652.62 Z" />
<path fill="#d1d1d1" opacity="1.00" d=" M 151.91 629.82 C 153.56 627.96 156.58 628.08 158.33 629.73 C 160.39 631.17 158.85 634.78 161.54 635.69 C 168.96 639.74 176.39 643.75 183.72 647.96 C 184.18 658.65 183.73 669.33 183.84 680.03 C 183.19 683.10 187.53 684.06 187.34 687.03 C 187.71 691.32 181.27 693.81 178.82 690.15 C 177.03 687.27 178.39 683.65 181.20 682.03 C 181.25 671.27 181.13 660.50 181.26 649.74 C 173.86 645.58 166.50 641.30 158.92 637.50 C 155.78 637.95 152.26 638.37 150.32 635.26 C 150.47 633.37 150.04 631.01 151.91 629.82 M 153.62 632.43 C 153.66 632.90 153.74 633.84 153.78 634.31 C 154.64 634.40 155.51 634.48 156.37 634.57 C 156.38 633.99 156.41 632.83 156.42 632.24 C 155.48 632.29 154.55 632.36 153.62 632.43 M 181.18 688.36 C 181.84 688.40 183.17 688.47 183.83 688.51 C 183.81 687.18 183.79 685.48 181.92 685.69 C 181.41 686.48 181.16 687.37 181.18 688.36 Z" />
</g>
<g id="#e7e7e6ff">
<path fill="#e7e7e6" opacity="1.00" d=" M 306.52 572.32 C 311.22 561.38 326.74 559.29 335.75 566.01 C 340.24 570.24 341.82 576.98 339.87 582.80 C 337.71 588.45 332.94 592.60 327.88 595.66 C 331.03 599.48 335.07 602.46 338.97 605.48 C 342.07 601.10 344.24 596.11 345.91 591.03 C 351.14 591.06 356.37 591.12 361.60 590.95 C 359.18 598.63 355.54 605.86 351.05 612.52 C 354.41 614.13 358.00 615.18 361.64 615.98 C 360.58 620.54 358.65 624.85 357.94 629.49 C 351.53 629.18 345.82 625.97 340.06 623.56 C 333.74 628.15 325.77 629.91 318.06 629.59 C 311.16 629.63 303.91 626.91 299.92 621.04 C 296.53 616.77 296.86 610.94 297.50 605.85 C 298.87 599.99 303.64 595.79 308.52 592.69 C 305.41 586.50 303.11 578.89 306.52 572.32 M 319.40 576.90 C 317.81 580.00 319.34 583.44 320.78 586.27 C 324.24 584.02 328.66 580.79 327.51 576.03 C 326.33 572.06 320.14 573.20 319.40 576.90 M 312.70 609.97 C 313.50 612.28 314.52 614.89 317.09 615.70 C 320.53 617.63 324.48 616.59 327.94 615.29 C 323.74 611.70 319.56 608.04 315.96 603.83 C 314.50 605.66 313.49 607.77 312.70 609.97 Z" />
<path fill="#e7e7e6" opacity="1.00" d=" M 214.81 563.29 C 220.63 563.48 226.46 563.24 232.29 563.44 C 232.19 585.11 232.19 606.79 232.29 628.46 C 226.43 628.58 220.58 628.50 214.72 628.51 C 214.84 606.77 214.67 585.03 214.81 563.29 Z" />
<path fill="#e7e7e6" opacity="1.00" d=" M 241.73 563.47 C 258.96 563.27 276.20 563.36 293.44 563.42 C 293.31 568.19 293.43 572.98 293.33 577.76 C 287.68 577.73 282.03 577.80 276.39 577.69 C 276.17 594.65 276.34 611.61 276.30 628.56 C 270.45 628.45 264.60 628.60 258.76 628.47 C 258.79 611.54 258.95 594.61 258.68 577.70 C 253.04 577.73 247.39 577.87 241.76 577.62 C 241.81 572.90 241.83 568.18 241.73 563.47 Z" />
<path fill="#e7e7e6" opacity="1.00" d=" M 370.31 563.30 C 381.21 563.91 392.39 562.06 403.04 565.07 C 413.45 568.10 421.29 578.14 421.74 588.98 C 423.12 595.26 422.03 601.69 420.86 607.90 C 418.17 619.14 407.63 627.54 396.20 628.35 C 387.57 628.74 378.94 628.36 370.31 628.58 C 370.28 606.82 370.28 585.06 370.31 563.30 M 387.35 577.14 C 387.42 589.69 387.44 602.25 387.34 614.80 C 390.95 614.88 394.77 614.70 397.91 612.70 C 401.74 610.45 403.52 606.02 404.31 601.86 C 405.44 595.76 405.20 589.07 402.21 583.52 C 399.59 578.11 392.81 576.73 387.35 577.14 Z" />
<path fill="#e7e7e6" opacity="1.00" d=" M 447.73 587.98 C 450.15 583.25 454.37 578.91 459.89 578.32 C 462.73 578.24 465.99 577.69 468.42 579.58 C 466.59 584.20 466.33 589.26 465.21 594.07 C 459.03 591.23 451.21 594.67 449.56 601.36 C 449.36 610.43 449.58 619.52 449.46 628.60 C 443.70 628.43 437.95 628.59 432.19 628.49 C 432.34 612.06 432.24 595.63 432.24 579.21 C 436.90 579.23 441.56 579.26 446.22 579.20 C 446.43 580.82 446.67 582.44 446.95 584.08 C 447.19 585.37 447.45 586.67 447.73 587.98 Z" />
<path fill="#e7e7e6" opacity="1.00" d=" M 471.00 584.40 C 480.20 578.93 491.80 576.16 502.14 579.83 C 509.76 582.83 512.70 591.46 513.22 599.00 C 513.36 608.82 513.17 618.64 513.33 628.47 C 508.59 628.58 503.85 628.48 499.12 628.55 C 498.66 626.92 498.23 625.27 497.82 623.64 C 493.98 627.00 489.28 629.91 483.98 629.61 C 477.02 630.03 470.40 624.55 469.40 617.67 C 468.97 613.40 469.13 608.57 472.31 605.31 C 478.27 598.89 487.54 597.67 495.78 596.72 C 495.57 594.52 494.32 592.47 492.04 591.98 C 486.59 590.57 481.41 593.66 476.61 595.81 C 475.04 591.86 472.09 588.53 471.00 584.40 M 485.78 615.27 C 489.21 617.38 493.55 616.40 495.88 613.16 C 495.81 610.94 495.79 608.72 495.71 606.50 C 491.40 607.75 483.89 608.98 485.78 615.27 Z" />
<path fill="#e7e7e6" opacity="1.00" d=" M 533.04 580.06 C 539.34 577.50 546.39 577.89 552.94 579.17 C 558.79 579.37 564.66 579.12 570.52 579.27 C 570.42 583.38 570.47 587.50 570.45 591.62 C 568.12 591.63 565.79 591.61 563.47 591.56 C 564.17 595.43 563.99 599.38 563.21 603.23 C 558.79 611.99 547.56 614.86 538.62 612.39 C 536.67 614.26 537.53 616.80 540.02 617.44 C 549.07 618.91 559.56 615.57 567.44 621.66 C 574.00 627.66 571.30 639.15 564.11 643.45 C 557.76 648.26 549.54 648.49 541.96 649.20 C 535.71 648.25 528.21 648.58 523.89 643.11 C 521.42 640.62 521.48 637.09 521.65 633.86 C 522.85 632.08 523.67 629.89 525.57 628.72 C 526.34 627.87 528.41 627.60 527.92 626.08 C 526.97 624.89 525.86 623.85 524.82 622.76 C 522.71 617.66 525.01 612.21 529.19 608.93 C 523.99 605.00 521.65 598.30 522.79 591.94 C 524.30 586.70 528.03 582.27 533.04 580.06 M 541.12 590.21 C 537.85 592.43 537.94 597.42 539.57 600.65 C 541.01 602.57 543.95 603.85 546.14 602.39 C 549.66 600.86 549.74 596.10 548.75 592.94 C 548.02 589.67 543.75 588.72 541.12 590.21 M 536.79 630.31 C 535.65 632.23 534.54 634.71 536.80 636.32 C 540.96 639.36 546.90 638.83 551.62 637.39 C 554.04 636.63 554.99 634.13 554.42 631.80 C 548.84 629.42 542.64 631.20 536.79 630.31 Z" />
<path fill="#e7e7e6" opacity="1.00" d=" M 592.57 578.83 C 599.78 577.28 607.85 578.44 613.67 583.20 C 626.05 592.57 626.52 613.37 614.92 623.56 C 608.87 629.10 599.86 630.89 592.04 628.74 C 582.83 626.66 575.87 618.22 574.34 609.07 C 573.77 603.96 573.73 598.58 575.74 593.75 C 578.50 586.48 584.91 580.50 592.57 578.83 M 597.02 592.01 C 593.43 592.93 592.14 596.79 591.74 600.06 C 591.33 604.57 591.29 609.42 593.60 613.49 C 596.10 617.11 602.66 616.56 604.17 612.29 C 606.36 607.22 606.31 601.29 604.48 596.12 C 603.46 593.17 600.10 591.05 597.02 592.01 Z" />
<path fill="#e7e7e6" opacity="1.00" d=" M 647.53 585.23 C 652.06 581.13 657.70 577.72 664.06 578.23 C 669.95 577.88 675.71 581.74 677.41 587.42 C 679.33 592.74 678.88 598.46 678.91 604.02 C 678.92 612.18 678.89 620.35 678.94 628.52 C 673.20 628.49 667.46 628.58 661.73 628.46 C 661.61 617.23 662.23 605.95 661.35 594.75 C 657.87 590.80 652.46 593.25 649.26 596.26 C 649.34 607.01 649.22 617.77 649.32 628.53 C 643.64 628.52 637.97 628.50 632.29 628.55 C 632.34 612.10 632.32 595.65 632.30 579.20 C 636.93 579.22 641.55 579.31 646.18 579.13 C 646.60 581.16 647.08 583.19 647.53 585.23 Z" />
<path fill="#e7e7e6" opacity="1.00" d=" M 698.98 579.45 C 708.45 576.59 719.20 578.48 726.87 584.81 C 724.03 587.96 721.50 591.37 719.16 594.91 C 714.68 591.87 707.66 588.01 703.12 592.99 C 705.64 596.71 710.37 597.19 714.25 598.71 C 719.52 600.36 724.64 604.05 726.34 609.53 C 727.05 613.96 726.80 618.95 723.57 622.41 C 719.45 627.71 712.45 629.43 706.05 629.57 C 698.59 629.87 691.24 627.28 685.28 622.89 C 687.49 619.12 690.29 615.77 692.84 612.24 C 697.55 615.44 703.32 618.51 709.16 616.69 C 709.99 615.75 711.40 614.76 710.55 613.35 C 706.01 609.62 699.69 609.48 695.02 605.99 C 690.92 603.47 687.54 598.99 687.75 594.00 C 687.59 587.34 692.71 581.27 698.98 579.45 Z" />
<path fill="#e7e7e6" opacity="1.00" d=" M 397.35 668.61 C 404.07 666.18 412.98 666.35 418.02 672.11 C 421.09 674.86 421.58 679.16 422.18 683.00 C 421.41 695.15 411.54 703.62 404.15 712.27 C 403.89 712.55 403.37 713.12 403.12 713.40 C 410.25 712.19 417.51 712.87 424.71 712.72 C 424.67 715.41 424.67 718.11 424.67 720.81 C 412.83 720.72 400.99 720.74 389.16 720.79 C 389.14 718.97 389.13 717.15 389.13 715.35 C 395.51 708.62 402.65 702.56 408.17 695.06 C 411.23 690.87 414.29 685.25 411.94 680.05 C 411.27 677.27 408.53 676.01 406.06 675.22 C 401.48 674.35 397.46 677.50 394.54 680.64 C 392.10 680.66 390.81 677.42 388.98 676.02 C 390.56 672.64 394.29 670.61 397.35 668.61 Z" />
<path fill="#e7e7e6" opacity="1.00" d=" M 434.86 677.16 C 437.24 671.23 443.34 666.48 449.96 667.23 C 456.62 666.65 462.16 671.74 464.73 677.46 C 467.67 684.97 467.69 693.19 467.13 701.12 C 466.26 706.97 464.96 713.24 460.44 717.46 C 456.41 722.14 449.40 722.38 443.87 720.86 C 437.65 718.46 434.72 712.03 432.79 706.12 C 432.59 704.36 432.42 702.60 431.91 700.91 C 431.29 692.94 431.40 684.54 434.86 677.16 M 441.34 686.89 C 441.35 693.98 440.25 701.44 443.00 708.18 C 444.12 711.14 446.74 713.98 450.13 713.90 C 452.71 713.26 455.17 711.54 455.98 708.91 C 459.09 700.60 458.84 691.47 457.21 682.87 C 456.16 679.30 454.13 675.64 450.09 675.02 C 444.09 675.16 441.84 681.91 441.34 686.89 Z" />
<path fill="#e7e7e6" opacity="1.00" d=" M 522.36 670.26 C 526.36 666.83 532.00 666.83 536.92 667.64 C 543.85 669.47 548.48 675.94 550.08 682.67 C 551.27 687.71 551.58 692.89 551.16 698.06 C 550.65 700.01 550.34 702.01 550.04 704.01 C 548.63 710.00 545.54 715.83 540.21 719.18 C 536.40 721.89 531.51 721.78 527.06 721.48 C 522.83 721.21 519.58 718.24 516.37 715.81 C 518.10 713.85 519.76 711.82 521.39 709.77 C 524.37 712.16 527.86 714.21 531.84 713.92 C 534.26 712.75 537.00 711.78 538.57 709.45 C 541.31 705.17 541.96 700.02 542.55 695.09 C 540.55 696.65 538.76 698.55 536.48 699.73 C 531.16 702.32 524.31 701.10 520.04 697.05 C 517.91 694.84 516.92 691.88 515.76 689.12 C 514.90 682.29 516.47 674.49 522.36 670.26 M 524.52 681.86 C 524.64 684.21 524.14 686.72 525.10 688.97 C 525.88 692.02 529.21 693.35 531.97 694.04 C 536.31 693.88 540.36 691.16 542.25 687.25 C 541.07 682.94 539.92 677.55 535.19 675.80 C 530.66 673.34 525.84 677.62 524.52 681.86 Z" />
<path fill="#e7e7e6" opacity="1.00" d=" M 478.60 672.14 C 482.64 671.41 486.49 670.04 490.21 668.30 C 492.70 667.98 495.23 668.21 497.74 668.20 C 497.57 683.01 497.81 697.83 497.61 712.64 C 501.00 712.75 504.40 712.70 507.80 712.70 C 507.78 715.39 507.78 718.09 507.78 720.80 C 497.24 720.73 486.70 720.73 476.17 720.79 C 476.15 718.10 476.15 715.41 476.11 712.73 C 480.04 712.68 483.96 712.75 487.90 712.65 C 487.65 701.13 487.81 689.60 487.81 678.07 C 484.63 678.05 481.46 678.07 478.28 678.08 C 478.37 676.11 477.90 674.02 478.60 672.14 Z" />
</g>
</svg>
